<svg width="40" height="40" viewBox="0 0 40 40" fill="none" xmlns="http://www.w3.org/2000/svg">
<rect width="40" height="40" rx="6.95652" fill="#FF9900"/>
<path d="M30.8875 13.8C30.4625 14.225 30.05 14.6375 30.0375 15.05C30 15.45 30.425 15.8625 30.825 16.25C31.425 16.875 32.0125 17.4375 31.9875 18.05C31.9625 18.6625 31.325 19.2999 30.6875 19.9249L25.525 25.1L23.75 23.325L29.0625 18.025L27.8625 16.825L26.0875 18.5875L21.4 13.9L26.2 9.11245C26.6875 8.62495 27.5 8.62495 27.9625 9.11245L30.8875 12.0375C31.375 12.5 31.375 13.3125 30.8875 13.8ZM8.75 26.5625L20.7 14.6L25.3875 19.2875L13.4375 31.25H8.75V26.5625Z" fill="white"/>
</svg>
