<svg width="52" height="53" viewBox="0 0 52 53" fill="none" xmlns="http://www.w3.org/2000/svg">
<path d="M5.52182 35.6151C4.11863 32.3035 3.55232 28.8997 3.79776 25.3845C4.48499 15.5382 11.2256 7.4638 20.7822 4.9687C33.4899 1.64988 46.5306 10.1349 48.627 23.1085C48.6713 23.3827 48.4689 23.8568 48.2379 23.9921C42.2563 27.4725 36.2796 30.9625 30.2478 34.3556C27.2235 36.0569 23.6568 35.59 20.9354 33.3247C27.2127 29.6958 33.472 26.0777 39.8007 22.4189C38.8274 19.4424 37.0925 17.0431 34.5555 15.3191C29.8359 12.1104 24.7918 11.6937 19.7477 14.372C14.6665 17.0707 12.187 21.5089 12.187 27.263C12.187 28.3956 12.5534 29.5234 12.6719 30.662C12.7054 30.9805 12.5594 31.4953 12.3247 31.6378C10.0978 32.9871 7.83254 34.2766 5.52182 35.6151Z" fill="white"/>
<path d="M48.451 30.5231C49.0964 36.0497 42.0085 45.022 34.8106 47.875C25.351 51.6249 14.384 48.6293 8.39771 40.5741C10.8329 39.1637 13.2562 37.7593 15.525 36.4459C17.0647 37.5223 18.4116 38.7196 19.9657 39.5038C24.5584 41.8205 29.1643 41.6098 33.6289 39.062C38.2491 36.4268 42.843 33.7449 47.4489 31.0846C47.7722 30.8978 48.1002 30.7194 48.451 30.5231Z" fill="white"/>
<path d="M18.0704 28.3608C17.546 24.5188 19.1563 21.182 22.2536 19.4771C25.3318 17.7818 29.0086 18.1314 31.7887 20.4373C27.2343 23.0677 22.7086 25.6813 18.0704 28.3608Z" fill="white"/>
</svg>
