<svg width="32" height="32" viewBox="0 0 32 32" fill="none" xmlns="http://www.w3.org/2000/svg">
<path d="M23.5333 8.46659C22.5465 7.47305 21.3728 6.68467 20.0799 6.14689C18.7869 5.60912 17.4003 5.33259 16 5.33325C10.1067 5.33325 5.34668 10.1066 5.34668 15.9999C5.34668 21.8933 10.1067 26.6666 16 26.6666C20.9733 26.6666 25.12 23.2666 26.3067 18.6666H23.5333C22.9841 20.2259 21.9645 21.5764 20.6151 22.5317C19.2658 23.487 17.6533 24 16 23.9999C11.5867 23.9999 8.00001 20.4133 8.00001 15.9999C8.00001 11.5866 11.5867 7.99992 16 7.99992C18.2133 7.99992 20.1867 8.91992 21.6267 10.3733L17.3333 14.6666H26.6667V5.33325L23.5333 8.46659Z" fill="white"/>
</svg>
